<svg xmlns="http://www.w3.org/2000/svg" width="960" height="420" viewBox="0 0 960 420">
  <rect width="100%" height="100%" fill="#ffffff" />
  <text x="60" y="18" font-size="16" font-weight="700">Closed-loop EMS simulation</text>
  <line x1="60.0" y1="24" x2="60.0" y2="368" stroke="#eeeeee" /><text x="50.0" y="386" font-size="12">0h</text><line x1="279.0" y1="24" x2="279.0" y2="368" stroke="#eeeeee" /><text x="269.0" y="386" font-size="12">6h</text><line x1="498.0" y1="24" x2="498.0" y2="368" stroke="#eeeeee" /><text x="488.0" y="386" font-size="12">12h</text><line x1="717.0" y1="24" x2="717.0" y2="368" stroke="#eeeeee" /><text x="707.0" y="386" font-size="12">18h</text><line x1="936.0" y1="24" x2="936.0" y2="368" stroke="#eeeeee" /><text x="926.0" y="386" font-size="12">24h</text>
  <line x1="60" y1="368.0" x2="936" y2="368.0" stroke="#eeeeee" /><text x="8" y="372.0" font-size="12">0 W</text><line x1="60" y1="282.0" x2="936" y2="282.0" stroke="#eeeeee" /><text x="8" y="286.0" font-size="12">6125 W</text><line x1="60" y1="196.0" x2="936" y2="196.0" stroke="#eeeeee" /><text x="8" y="200.0" font-size="12">12251 W</text><line x1="60" y1="110.0" x2="936" y2="110.0" stroke="#eeeeee" /><text x="8" y="114.0" font-size="12">18377 W</text><line x1="60" y1="24.0" x2="936" y2="24.0" stroke="#eeeeee" /><text x="8" y="28.0" font-size="12">24503 W</text>
  <rect x="60" y="24" width="876" height="344" fill="none" stroke="#222222" />
  <polyline points="60.0,368.0 66.2,368.0 72.0,368.0 78.2,368.0 84.5,368.0 90.3,368.0 96.5,368.0 102.7,368.0 108.5,368.0 114.8,368.0 121.0,368.0 126.8,368.0 133.0,368.0 139.2,368.0 145.0,368.0 151.2,368.0 157.5,368.0 163.3,368.0 169.5,368.0 175.7,368.0 181.5,368.0 187.8,368.0 194.0,368.0 199.8,368.0 206.0,368.0 212.2,368.0 218.0,368.0 224.2,368.0 230.5,368.0 236.3,368.0 242.5,368.0 248.7,368.0 254.5,368.0 260.8,368.0 267.0,368.0 272.8,368.0 279.0,368.0 285.2,353.7 291.0,340.8 297.2,326.1 303.5,315.3 309.3,296.3 315.5,282.7 321.7,275.0 327.5,269.3 333.8,243.7 340.0,233.0 345.8,206.1 352.0,194.5 358.2,208.2 364.0,193.3 370.2,156.3 376.5,155.7 382.3,131.7 388.5,152.8 394.7,144.1 400.5,133.3 406.8,137.3 413.0,83.2 418.8,92.5 425.0,111.9 431.2,80.5 437.0,71.4 443.2,49.6 449.5,64.1 455.3,80.8 461.5,39.4 467.7,83.1 473.5,29.7 479.8,81.1 486.0,77.9 491.8,62.6 498.0,73.0 504.2,24.0 510.0,60.2 516.2,78.2 522.5,53.4 528.3,50.2 534.5,31.8 540.7,57.3 546.5,81.1 552.8,78.9 559.0,63.3 564.8,99.3 571.0,75.6 577.2,111.4 583.0,99.5 589.2,99.9 595.5,133.4 601.3,110.2 607.5,156.0 613.7,157.2 619.5,168.4 625.8,163.3 632.0,196.7 637.8,190.1 644.0,219.3 650.2,233.3 656.0,226.5 662.2,249.4 668.5,263.9 674.3,271.0 680.5,279.7 686.7,294.0 692.5,310.3 698.8,322.4 705.0,337.8 710.8,354.4 717.0,368.0 723.2,368.0 729.0,368.0 735.2,368.0 741.5,368.0 747.3,368.0 753.5,368.0 759.7,368.0 765.5,368.0 771.8,368.0 778.0,368.0 783.8,368.0 790.0,368.0 796.2,368.0 802.0,368.0 808.2,368.0 814.5,368.0 820.3,368.0 826.5,368.0 832.7,368.0 838.5,368.0 844.8,368.0 851.0,368.0 856.8,368.0 863.0,368.0 869.2,368.0 875.0,368.0 881.2,368.0 887.5,368.0 893.3,368.0 899.5,368.0 905.7,368.0 911.5,368.0 917.8,368.0 924.0,368.0 929.8,368.0" fill="none" stroke="#f5a623" stroke-width="2.4" stroke-linejoin="round" stroke-linecap="round" /><polyline points="60.0,354.7 66.2,351.1 72.0,353.3 78.2,351.0 84.5,355.6 90.3,355.7 96.5,351.5 102.7,351.7 108.5,351.2 114.8,354.9 121.0,355.6 126.8,352.2 133.0,353.1 139.2,353.1 145.0,351.0 151.2,352.2 157.5,352.1 163.3,355.5 169.5,355.8 175.7,353.7 181.5,353.9 187.8,349.8 194.0,355.4 199.8,353.7 206.0,355.8 212.2,354.8 218.0,354.1 224.2,352.3 230.5,355.2 236.3,350.8 242.5,354.2 248.7,354.9 254.5,355.2 260.8,352.2 267.0,355.1 272.8,355.1 279.0,353.1 285.2,355.6 291.0,350.6 297.2,353.4 303.5,350.6 309.3,351.4 315.5,341.6 321.7,339.7 327.5,338.3 333.8,338.7 340.0,341.0 345.8,336.9 352.0,338.5 358.2,341.5 364.0,338.5 370.2,339.3 376.5,340.2 382.3,336.6 388.5,340.6 394.7,352.7 400.5,354.3 406.8,352.0 413.0,350.8 418.8,352.6 425.0,356.1 431.2,352.0 437.0,350.9 443.2,352.7 449.5,355.2 455.3,355.8 461.5,353.6 467.7,351.0 473.5,352.9 479.8,355.2 486.0,354.2 491.8,351.4 498.0,349.9 504.2,354.3 510.0,354.6 516.2,351.2 522.5,354.6 528.3,353.1 534.5,354.5 540.7,350.2 546.5,350.4 552.8,354.3 559.0,353.4 564.8,350.2 571.0,353.1 577.2,351.9 583.0,355.4 589.2,355.6 595.5,350.1 601.3,353.9 607.5,352.9 613.7,352.1 619.5,352.5 625.8,352.8 632.0,352.4 637.8,353.0 644.0,355.1 650.2,354.3 656.0,354.0 662.2,351.9 668.5,355.1 674.3,353.8 680.5,352.9 686.7,353.5 692.5,350.2 698.8,355.8 705.0,349.8 710.8,352.0 717.0,330.6 723.2,326.7 729.0,328.2 735.2,325.9 741.5,330.4 747.3,329.2 753.5,328.9 759.7,329.4 765.5,329.4 771.8,329.5 778.0,329.9 783.8,328.5 790.0,329.4 796.2,330.0 802.0,325.3 808.2,329.6 814.5,325.5 820.3,328.8 826.5,329.4 832.7,325.3 838.5,326.7 844.8,326.0 851.0,326.2 856.8,330.3 863.0,326.7 869.2,350.6 875.0,351.6 881.2,352.2 887.5,352.3 893.3,352.7 899.5,350.6 905.7,352.1 911.5,350.7 917.8,353.5 924.0,355.6 929.8,350.7" fill="none" stroke="#2f6fed" stroke-width="2.4" stroke-linejoin="round" stroke-linecap="round" /><polyline points="60.0,368.0 66.2,368.0 72.0,368.0 78.2,368.0 84.5,368.0 90.3,368.0 96.5,368.0 102.7,368.0 108.5,368.0 114.8,368.0 121.0,368.0 126.8,368.0 133.0,368.0 139.2,368.0 145.0,368.0 151.2,368.0 157.5,368.0 163.3,368.0 169.5,368.0 175.7,368.0 181.5,368.0 187.8,368.0 194.0,368.0 199.8,368.0 206.0,368.0 212.2,368.0 218.0,368.0 224.2,368.0 230.5,368.0 236.3,368.0 242.5,368.0 248.7,368.0 254.5,368.0 260.8,368.0 267.0,368.0 272.8,368.0 279.0,368.0 285.2,368.0 291.0,368.0 297.2,368.0 303.5,368.0 309.3,368.0 315.5,368.0 321.7,368.0 327.5,368.0 333.8,368.0 340.0,368.0 345.8,368.0 352.0,368.0 358.2,368.0 364.0,368.0 370.2,368.0 376.5,368.0 382.3,368.0 388.5,368.0 394.7,368.0 400.5,368.0 406.8,368.0 413.0,368.0 418.8,368.0 425.0,368.0 431.2,368.0 437.0,368.0 443.2,368.0 449.5,368.0 455.3,368.0 461.5,368.0 467.7,368.0 473.5,368.0 479.8,368.0 486.0,368.0 491.8,368.0 498.0,368.0 504.2,368.0 510.0,368.0 516.2,368.0 522.5,368.0 528.3,368.0 534.5,368.0 540.7,368.0 546.5,368.0 552.8,368.0 559.0,368.0 564.8,368.0 571.0,368.0 577.2,368.0 583.0,368.0 589.2,368.0 595.5,368.0 601.3,368.0 607.5,368.0 613.7,368.0 619.5,368.0 625.8,368.0 632.0,368.0 637.8,368.0 644.0,368.0 650.2,368.0 656.0,368.0 662.2,368.0 668.5,368.0 674.3,368.0 680.5,368.0 686.7,368.0 692.5,368.0 698.8,368.0 705.0,368.0 710.8,368.0 717.0,368.0 723.2,368.0 729.0,368.0 735.2,368.0 741.5,368.0 747.3,368.0 753.5,368.0 759.7,368.0 765.5,368.0 771.8,368.0 778.0,368.0 783.8,368.0 790.0,368.0 796.2,368.0 802.0,367.4 808.2,368.0 814.5,367.7 820.3,368.0 826.5,368.0 832.7,367.4 838.5,368.0 844.8,368.0 851.0,368.0 856.8,368.0 863.0,368.0 869.2,368.0 875.0,368.0 881.2,368.0 887.5,368.0 893.3,368.0 899.5,368.0 905.7,368.0 911.5,368.0 917.8,368.0 924.0,368.0 929.8,368.0" fill="none" stroke="#d94f45" stroke-width="2.4" stroke-linejoin="round" stroke-linecap="round" /><polyline points="60.0,368.0 66.2,368.0 72.0,368.0 78.2,368.0 84.5,368.0 90.3,368.0 96.5,368.0 102.7,368.0 108.5,368.0 114.8,368.0 121.0,368.0 126.8,368.0 133.0,368.0 139.2,368.0 145.0,368.0 151.2,368.0 157.5,368.0 163.3,368.0 169.5,368.0 175.7,368.0 181.5,368.0 187.8,368.0 194.0,368.0 199.8,368.0 206.0,368.0 212.2,368.0 218.0,368.0 224.2,368.0 230.5,368.0 236.3,368.0 242.5,368.0 248.7,368.0 254.5,368.0 260.8,368.0 267.0,368.0 272.8,368.0 279.0,368.0 285.2,368.0 291.0,368.0 297.2,368.0 303.5,368.0 309.3,368.0 315.5,368.0 321.7,338.4 327.5,334.2 333.8,317.5 340.0,317.5 345.8,317.5 352.0,317.5 358.2,317.5 364.0,317.5 370.2,317.5 376.5,317.5 382.3,317.5 388.5,317.5 394.7,317.5 400.5,317.5 406.8,317.5 413.0,317.5 418.8,317.5 425.0,317.5 431.2,317.5 437.0,317.5 443.2,317.5 449.5,317.5 455.3,317.5 461.5,317.5 467.7,317.5 473.5,317.5 479.8,317.5 486.0,317.5 491.8,317.5 498.0,317.5 504.2,317.5 510.0,317.5 516.2,317.5 522.5,317.5 528.3,317.5 534.5,317.5 540.7,317.5 546.5,317.5 552.8,317.5 559.0,317.5 564.8,317.5 571.0,317.5 577.2,317.5 583.0,317.5 589.2,317.5 595.5,317.5 601.3,317.5 607.5,317.5 613.7,317.5 619.5,317.5 625.8,317.5 632.0,317.5 637.8,317.5 644.0,317.5 650.2,317.5 656.0,317.5 662.2,317.5 668.5,317.5 674.3,320.2 680.5,329.9 686.7,343.6 692.5,368.0 698.8,368.0 705.0,368.0 710.8,368.0 717.0,368.0 723.2,368.0 729.0,368.0 735.2,368.0 741.5,368.0 747.3,368.0 753.5,368.0 759.7,368.0 765.5,368.0 771.8,368.0 778.0,368.0 783.8,368.0 790.0,368.0 796.2,368.0 802.0,368.0 808.2,368.0 814.5,368.0 820.3,368.0 826.5,368.0 832.7,368.0 838.5,368.0 844.8,368.0 851.0,368.0 856.8,368.0 863.0,368.0 869.2,368.0 875.0,368.0 881.2,368.0 887.5,368.0 893.3,368.0 899.5,368.0 905.7,368.0 911.5,368.0 917.8,368.0 924.0,368.0 929.8,368.0" fill="none" stroke="#1f9d55" stroke-width="2.4" stroke-linejoin="round" stroke-linecap="round" />
  <rect x="60" y="390" width="14" height="4" fill="#f5a623" /><text x="80" y="395" font-size="13">PV</text><rect x="205" y="390" width="14" height="4" fill="#2f6fed" /><text x="225" y="395" font-size="13">Load</text><rect x="350" y="390" width="14" height="4" fill="#d94f45" /><text x="370" y="395" font-size="13">Grid</text><rect x="495" y="390" width="14" height="4" fill="#1f9d55" /><text x="515" y="395" font-size="13">EV target</text>
</svg>
