<svg xmlns="http://www.w3.org/2000/svg" width="960" height="420" viewBox="0 0 960 420">
  <rect width="100%" height="100%" fill="#ffffff" />
  <text x="60" y="18" font-size="16" font-weight="700">Closed-loop EMS simulation</text>
  <line x1="60.0" y1="24" x2="60.0" y2="368" stroke="#eeeeee" /><text x="50.0" y="386" font-size="12">0h</text><line x1="279.0" y1="24" x2="279.0" y2="368" stroke="#eeeeee" /><text x="269.0" y="386" font-size="12">6h</text><line x1="498.0" y1="24" x2="498.0" y2="368" stroke="#eeeeee" /><text x="488.0" y="386" font-size="12">12h</text><line x1="717.0" y1="24" x2="717.0" y2="368" stroke="#eeeeee" /><text x="707.0" y="386" font-size="12">18h</text><line x1="936.0" y1="24" x2="936.0" y2="368" stroke="#eeeeee" /><text x="926.0" y="386" font-size="12">24h</text>
  <line x1="60" y1="368.0" x2="936" y2="368.0" stroke="#eeeeee" /><text x="8" y="372.0" font-size="12">0 W</text><line x1="60" y1="282.0" x2="936" y2="282.0" stroke="#eeeeee" /><text x="8" y="286.0" font-size="12">6212 W</text><line x1="60" y1="196.0" x2="936" y2="196.0" stroke="#eeeeee" /><text x="8" y="200.0" font-size="12">12424 W</text><line x1="60" y1="110.0" x2="936" y2="110.0" stroke="#eeeeee" /><text x="8" y="114.0" font-size="12">18636 W</text><line x1="60" y1="24.0" x2="936" y2="24.0" stroke="#eeeeee" /><text x="8" y="28.0" font-size="12">24849 W</text>
  <rect x="60" y="24" width="876" height="344" fill="none" stroke="#222222" />
  <polyline points="60.0,368.0 66.2,368.0 72.0,368.0 78.2,368.0 84.5,368.0 90.3,368.0 96.5,368.0 102.7,368.0 108.5,368.0 114.8,368.0 121.0,368.0 126.8,368.0 133.0,368.0 139.2,368.0 145.0,368.0 151.2,368.0 157.5,368.0 163.3,368.0 169.5,368.0 175.7,368.0 181.5,368.0 187.8,368.0 194.0,368.0 199.8,368.0 206.0,368.0 212.2,368.0 218.0,368.0 224.2,368.0 230.5,368.0 236.3,368.0 242.5,368.0 248.7,368.0 254.5,368.0 260.8,368.0 267.0,368.0 272.8,368.0 279.0,368.0 285.2,353.9 291.0,339.3 297.2,327.2 303.5,308.0 309.3,297.3 315.5,283.5 321.7,268.3 327.5,266.1 333.8,240.2 340.0,241.0 345.8,210.7 352.0,198.8 358.2,208.4 364.0,191.1 370.2,177.8 376.5,180.0 382.3,152.6 388.5,134.4 394.7,117.5 400.5,133.3 406.8,117.7 413.0,97.0 418.8,122.9 425.0,113.6 431.2,93.0 437.0,89.1 443.2,48.5 449.5,86.6 455.3,46.2 461.5,52.9 467.7,49.5 473.5,42.5 479.8,47.0 486.0,67.1 491.8,56.2 498.0,29.6 504.2,24.0 510.0,74.2 516.2,32.9 522.5,36.9 528.3,53.9 534.5,71.4 540.7,65.3 546.5,47.3 552.8,71.3 559.0,109.7 564.8,67.7 571.0,78.7 577.2,125.6 583.0,106.6 589.2,138.6 595.5,111.7 601.3,134.3 607.5,161.7 613.7,136.4 619.5,175.0 625.8,172.2 632.0,172.0 637.8,191.1 644.0,203.9 650.2,208.3 656.0,238.2 662.2,248.6 668.5,266.2 674.3,282.3 680.5,290.8 686.7,306.5 692.5,311.9 698.8,330.4 705.0,338.6 710.8,354.2 717.0,368.0 723.2,368.0 729.0,368.0 735.2,368.0 741.5,368.0 747.3,368.0 753.5,368.0 759.7,368.0 765.5,368.0 771.8,368.0 778.0,368.0 783.8,368.0 790.0,368.0 796.2,368.0 802.0,368.0 808.2,368.0 814.5,368.0 820.3,368.0 826.5,368.0 832.7,368.0 838.5,368.0 844.8,368.0 851.0,368.0 856.8,368.0 863.0,368.0 869.2,368.0 875.0,368.0 881.2,368.0 887.5,368.0 893.3,368.0 899.5,368.0 905.7,368.0 911.5,368.0 917.8,368.0 924.0,368.0 929.8,368.0" fill="none" stroke="#f5a623" stroke-width="2.4" stroke-linejoin="round" stroke-linecap="round" /><polyline points="60.0,356.1 66.2,354.5 72.0,351.0 78.2,351.0 84.5,355.6 90.3,356.0 96.5,354.7 102.7,352.0 108.5,354.8 114.8,351.3 121.0,354.7 126.8,354.3 133.0,356.2 139.2,355.1 145.0,353.8 151.2,354.7 157.5,353.9 163.3,353.5 169.5,350.2 175.7,354.4 181.5,351.1 187.8,355.4 194.0,353.6 199.8,354.2 206.0,351.9 212.2,353.7 218.0,351.2 224.2,351.6 230.5,354.2 236.3,350.2 242.5,355.5 248.7,353.0 254.5,353.7 260.8,353.7 267.0,354.4 272.8,351.4 279.0,351.9 285.2,352.5 291.0,355.1 297.2,354.3 303.5,351.7 309.3,354.7 315.5,336.4 321.7,342.0 327.5,342.2 333.8,339.6 340.0,340.9 345.8,338.4 352.0,340.2 358.2,338.9 364.0,337.8 370.2,340.5 376.5,337.1 382.3,340.5 388.5,339.4 394.7,353.4 400.5,355.3 406.8,355.6 413.0,350.1 418.8,351.8 425.0,351.4 431.2,355.8 437.0,352.0 443.2,352.5 449.5,352.3 455.3,356.2 461.5,355.4 467.7,352.4 473.5,350.8 479.8,355.4 486.0,355.1 491.8,351.1 498.0,354.4 504.2,350.8 510.0,355.5 516.2,354.1 522.5,352.6 528.3,355.2 534.5,355.1 540.7,350.7 546.5,356.2 552.8,352.8 559.0,353.7 564.8,350.3 571.0,354.5 577.2,350.0 583.0,355.7 589.2,352.8 595.5,350.8 601.3,355.3 607.5,352.9 613.7,355.1 619.5,350.1 625.8,354.7 632.0,350.9 637.8,354.8 644.0,353.4 650.2,351.6 656.0,352.6 662.2,354.5 668.5,353.8 674.3,352.3 680.5,354.7 686.7,351.2 692.5,354.6 698.8,356.0 705.0,355.7 710.8,354.3 717.0,329.8 723.2,326.2 729.0,327.3 735.2,329.6 741.5,325.6 747.3,330.6 753.5,328.3 759.7,328.4 765.5,326.2 771.8,326.7 778.0,330.6 783.8,326.2 790.0,325.2 796.2,330.0 802.0,328.1 808.2,330.0 814.5,329.6 820.3,330.8 826.5,325.2 832.7,330.6 838.5,327.5 844.8,330.7 851.0,325.3 856.8,328.4 863.0,329.8 869.2,355.8 875.0,356.2 881.2,354.4 887.5,350.7 893.3,353.2 899.5,351.1 905.7,352.3 911.5,352.8 917.8,354.1 924.0,355.8 929.8,352.4" fill="none" stroke="#2f6fed" stroke-width="2.4" stroke-linejoin="round" stroke-linecap="round" /><polyline points="60.0,368.0 66.2,368.0 72.0,368.0 78.2,368.0 84.5,368.0 90.3,368.0 96.5,368.0 102.7,368.0 108.5,368.0 114.8,368.0 121.0,368.0 126.8,368.0 133.0,368.0 139.2,368.0 145.0,368.0 151.2,368.0 157.5,368.0 163.3,368.0 169.5,368.0 175.7,368.0 181.5,368.0 187.8,368.0 194.0,368.0 199.8,368.0 206.0,368.0 212.2,368.0 218.0,368.0 224.2,368.0 230.5,368.0 236.3,368.0 242.5,368.0 248.7,368.0 254.5,368.0 260.8,368.0 267.0,368.0 272.8,368.0 279.0,368.0 285.2,368.0 291.0,368.0 297.2,368.0 303.5,368.0 309.3,368.0 315.5,368.0 321.7,368.0 327.5,368.0 333.8,368.0 340.0,368.0 345.8,368.0 352.0,368.0 358.2,368.0 364.0,368.0 370.2,368.0 376.5,368.0 382.3,368.0 388.5,368.0 394.7,368.0 400.5,368.0 406.8,368.0 413.0,368.0 418.8,368.0 425.0,368.0 431.2,368.0 437.0,368.0 443.2,368.0 449.5,368.0 455.3,368.0 461.5,368.0 467.7,368.0 473.5,368.0 479.8,368.0 486.0,368.0 491.8,368.0 498.0,368.0 504.2,368.0 510.0,368.0 516.2,368.0 522.5,368.0 528.3,368.0 534.5,368.0 540.7,368.0 546.5,368.0 552.8,368.0 559.0,368.0 564.8,368.0 571.0,368.0 577.2,368.0 583.0,368.0 589.2,368.0 595.5,368.0 601.3,368.0 607.5,368.0 613.7,368.0 619.5,368.0 625.8,368.0 632.0,368.0 637.8,368.0 644.0,368.0 650.2,368.0 656.0,368.0 662.2,368.0 668.5,368.0 674.3,368.0 680.5,368.0 686.7,368.0 692.5,368.0 698.8,368.0 705.0,368.0 710.8,368.0 717.0,368.0 723.2,367.7 729.0,368.0 735.2,368.0 741.5,367.1 747.3,368.0 753.5,368.0 759.7,368.0 765.5,367.7 771.8,368.0 778.0,368.0 783.8,367.7 790.0,366.7 796.2,368.0 802.0,368.0 808.2,368.0 814.5,368.0 820.3,368.0 826.5,366.7 832.7,368.0 838.5,368.0 844.8,368.0 851.0,366.8 856.8,368.0 863.0,368.0 869.2,368.0 875.0,368.0 881.2,368.0 887.5,368.0 893.3,368.0 899.5,368.0 905.7,368.0 911.5,368.0 917.8,368.0 924.0,368.0 929.8,368.0" fill="none" stroke="#d94f45" stroke-width="2.4" stroke-linejoin="round" stroke-linecap="round" /><polyline points="60.0,368.0 66.2,368.0 72.0,368.0 78.2,368.0 84.5,368.0 90.3,368.0 96.5,368.0 102.7,368.0 108.5,368.0 114.8,368.0 121.0,368.0 126.8,368.0 133.0,368.0 139.2,368.0 145.0,368.0 151.2,368.0 157.5,368.0 163.3,368.0 169.5,368.0 175.7,368.0 181.5,368.0 187.8,368.0 194.0,368.0 199.8,368.0 206.0,368.0 212.2,368.0 218.0,368.0 224.2,368.0 230.5,368.0 236.3,368.0 242.5,368.0 248.7,368.0 254.5,368.0 260.8,368.0 267.0,368.0 272.8,368.0 279.0,368.0 285.2,368.0 291.0,368.0 297.2,368.0 303.5,368.0 309.3,368.0 315.5,368.0 321.7,328.9 327.5,326.5 333.8,318.2 340.0,318.2 345.8,318.2 352.0,318.2 358.2,318.2 364.0,318.2 370.2,318.2 376.5,318.2 382.3,318.2 388.5,318.2 394.7,318.2 400.5,318.2 406.8,318.2 413.0,318.2 418.8,318.2 425.0,318.2 431.2,318.2 437.0,318.2 443.2,318.2 449.5,318.2 455.3,318.2 461.5,318.2 467.7,318.2 473.5,318.2 479.8,318.2 486.0,318.2 491.8,318.2 498.0,318.2 504.2,318.2 510.0,318.2 516.2,318.2 522.5,318.2 528.3,318.2 534.5,318.2 540.7,318.2 546.5,318.2 552.8,318.2 559.0,318.2 564.8,318.2 571.0,318.2 577.2,318.2 583.0,318.2 589.2,318.2 595.5,318.2 601.3,318.2 607.5,318.2 613.7,318.2 619.5,318.2 625.8,318.2 632.0,318.2 637.8,318.2 644.0,318.2 650.2,318.2 656.0,318.2 662.2,318.2 668.5,318.2 674.3,332.6 680.5,338.8 686.7,368.0 692.5,368.0 698.8,368.0 705.0,368.0 710.8,368.0 717.0,368.0 723.2,368.0 729.0,368.0 735.2,368.0 741.5,368.0 747.3,368.0 753.5,368.0 759.7,368.0 765.5,368.0 771.8,368.0 778.0,368.0 783.8,368.0 790.0,368.0 796.2,368.0 802.0,368.0 808.2,368.0 814.5,368.0 820.3,368.0 826.5,368.0 832.7,368.0 838.5,368.0 844.8,368.0 851.0,368.0 856.8,368.0 863.0,368.0 869.2,368.0 875.0,368.0 881.2,368.0 887.5,368.0 893.3,368.0 899.5,368.0 905.7,368.0 911.5,368.0 917.8,368.0 924.0,368.0 929.8,368.0" fill="none" stroke="#1f9d55" stroke-width="2.4" stroke-linejoin="round" stroke-linecap="round" />
  <rect x="60" y="390" width="14" height="4" fill="#f5a623" /><text x="80" y="395" font-size="13">PV</text><rect x="205" y="390" width="14" height="4" fill="#2f6fed" /><text x="225" y="395" font-size="13">Load</text><rect x="350" y="390" width="14" height="4" fill="#d94f45" /><text x="370" y="395" font-size="13">Grid</text><rect x="495" y="390" width="14" height="4" fill="#1f9d55" /><text x="515" y="395" font-size="13">EV target</text>
</svg>
